<svg xmlns="http://www.w3.org/2000/svg" viewBox="0 0 240 240" role="img" aria-label="Avatar Ibu Endah">
  <defs>
    <linearGradient id="bg" x1="0" y1="0" x2="1" y2="1">
      <stop offset="0%" stop-color="#d1fae5"/>
      <stop offset="100%" stop-color="#a7f3d0"/>
    </linearGradient>
  </defs>
  <rect width="240" height="240" rx="120" fill="url(#bg)"/>
  <circle cx="120" cy="95" r="42" fill="#fde68a"/>
  <path d="M78 92c6-28 25-46 42-46s36 18 42 46c-10-12-23-19-42-19s-32 7-42 19z" fill="#111827"/>
  <rect x="70" y="140" width="100" height="70" rx="35" fill="#1f2937"/>
  <rect x="90" y="112" width="60" height="70" rx="30" fill="#fde68a"/>
  <circle cx="106" cy="95" r="4" fill="#111827"/>
  <circle cx="134" cy="95" r="4" fill="#111827"/>
  <path d="M106 112c4 6 10 9 14 9s10-3 14-9" fill="none" stroke="#b45309" stroke-width="4" stroke-linecap="round"/>
</svg>
